<?xml version="1.0" encoding="utf-8"?>
<!-- Generator: Adobe Illustrator 26.4.1, SVG Export Plug-In . SVG Version: 6.00 Build 0)  -->
<svg version="1.1" id="Camada_2" xmlns="http://www.w3.org/2000/svg" xmlns:xlink="http://www.w3.org/1999/xlink" x="0px" y="0px"
	 viewBox="0 0 747.8 296.2" style="enable-background:new 0 0 747.8 296.2;" xml:space="preserve">
<style type="text/css">
	.st0{fill:#FFFFFF;}
</style>
<path class="st0" d="M167.4,14.5L167.4,14.5c-17.1-17.1-44.9-17.1-62,0l0,0c-17.1,17.1-17.1,44.9,0,62l0,0l7.8,7.8l15.5-15.5
	l-7.8-7.8l0,0c-8.6-8.6-8.6-22.4,0-31s22.4-8.6,31,0l0,0c8.6,8.6,8.6,22.4,0,31l0,0l-14.6,14.6L120.9,92l15.5,15.5l31-31l0,0
	C184.5,59.3,184.5,31.6,167.4,14.5L167.4,14.5z"/>
<rect x="166.9" y="76" transform="matrix(0.7071 -0.7071 0.7071 0.7071 -23.0304 184.116)" class="st0" width="87.6" height="87.6"/>
<rect x="92.5" y="150.4" transform="matrix(0.7071 -0.7071 0.7071 0.7071 -97.4098 153.3065)" class="st0" width="87.6" height="87.6"/>
<rect x="18.1" y="76" transform="matrix(0.7071 -0.7071 0.7071 0.7071 -66.6004 78.9271)" class="st0" width="87.7" height="87.6"/>
<path class="st0" d="M432.6,124.4L432.6,124.4c-15.1,0-27.3,12.2-27.3,27.3l0,0c0,15.1,12.2,27.3,27.3,27.3l0,0
	c15.1,0,27.3-12.2,27.3-27.3l0,0C459.9,136.6,447.6,124.4,432.6,124.4z M432.6,165.4c-7.5,0-13.6-6.1-13.6-13.6s6.1-13.6,13.6-13.6
	s13.6,6.1,13.6,13.6S440.1,165.4,432.6,165.4z"/>
<path class="st0" d="M364.3,124.4L364.3,124.4c-15.1,0-27.3,12.2-27.3,27.3l0,0V179h13.6v-27.3c0-7.5,6.1-13.6,13.6-13.6l0,0
	c7.5,0,13.6,6.1,13.6,13.6V179h13.6v-27.3l0,0C391.6,136.6,379.4,124.4,364.3,124.4z"/>
<polygon class="st0" points="402.2,13.6 402.2,41 402.2,68.3 402.2,95.6 415.9,95.6 415.9,68.3 415.9,41 415.9,13.6 402.2,0 "/>
<path class="st0" d="M456.8,41L456.8,41c-15.1,0-27.3,12.2-27.3,27.3l0,0c0,15.1,12.2,27.3,27.3,27.3h6.8V81.9h-6.8
	c-7.5,0-13.6-6.1-13.6-13.7s6.1-13.7,13.6-13.7l0,0c7.5,0,13.6,6.1,13.6,13.7v27.3h13.6V68.2l0,0C484.1,53.2,471.9,41,456.8,41z"/>
<path class="st0" d="M361.3,41L361.3,41C346.2,41,334,53.2,334,68.2l0,0c0,15.1,12.2,27.3,27.3,27.3h6.8V81.9h-6.8
	c-7.5,0-13.6-6.1-13.6-13.7s6.1-13.7,13.6-13.7s13.6,6.1,13.6,13.7v27.3h13.6V68.2l0,0C388.6,53.2,376.3,41,361.3,41z"/>
<path class="st0" d="M661.6,41L661.6,41c-15.1,0-27.3,12.2-27.3,27.3l0,0c0,15.1,12.2,27.3,27.3,27.3h6.8V81.9h-6.8
	c-7.5,0-13.7-6.1-13.7-13.7s6.1-13.7,13.7-13.7l0,0c7.5,0,13.7,6.1,13.7,13.7v27.3h13.7V68.2l0,0C688.9,53.2,676.7,41,661.6,41
	L661.6,41z"/>
<path class="st0" d="M525.1,41L525.1,41c-15.1,0-27.3,12.2-27.3,27.3l0,0c0,15.1,12.2,27.3,27.3,27.3h6.8V81.9h-6.8
	c-7.5,0-13.6-6.1-13.6-13.7s6.1-13.7,13.6-13.7s13.7,6.1,13.7,13.7v40.9c0,7.5-6.1,13.7-13.7,13.7s-13.6-6.1-13.6-13.7h-13.6
	c0,15.1,12.2,27.3,27.3,27.3l0,0c15.1,0,27.3-12.2,27.3-27.3V68.2l0,0C552.4,53.2,540.2,41,525.1,41z"/>
<path class="st0" d="M593.3,41L593.3,41C578.3,41,566,53.2,566,68.2l0,0c0,15.1,12.2,27.3,27.3,27.3l0,0c15.1,0,27.3-12.2,27.3-27.3
	l0,0C620.6,53.2,608.4,41,593.3,41z M593.3,81.9c-7.5,0-13.7-6.1-13.7-13.7s6.1-13.7,13.7-13.7S607,60.7,607,68.2
	S600.9,81.9,593.3,81.9z"/>
<path class="st0" d="M723.9,52.7h23.9V41h-24.5c-11.4,0-20.5,7-20.7,21.2h0v12.2h32.7c-0.6,5.5-3.6,9.4-9.1,9.4h-23.7v11.8h24.3
	c11.4,0,20.5-7.2,20.7-21.2h0V62.2h-32.7C715.4,56.6,718.4,52.8,723.9,52.7L723.9,52.7z"/>
<path class="st0" d="M471.2,200.7L471.2,200.7c-15.1,0-27.3,12.2-27.3,27.3l0,0c0,15.1,12.2,27.3,27.3,27.3h6.8v-13.6h-6.8
	c-7.5,0-13.6-6.1-13.6-13.6s6.1-13.6,13.6-13.6s13.6,6.1,13.6,13.6v27.3h13.6V228l0,0C498.5,212.9,486.2,200.7,471.2,200.7
	L471.2,200.7z"/>
<path class="st0" d="M607.7,200.7L607.7,200.7c-15.1,0-27.3,12.2-27.3,27.3l0,0c0,15.1,12.2,27.3,27.3,27.3h6.8v-13.6h-6.8
	c-7.5,0-13.7-6.1-13.7-13.6s6.1-13.6,13.7-13.6l0,0c7.5,0,13.7,6.1,13.7,13.6v27.3H635V228l0,0C635,212.9,622.8,200.7,607.7,200.7
	L607.7,200.7z"/>
<path class="st0" d="M539.4,200.7L539.4,200.7c-15.1,0-27.3,12.2-27.3,27.3l0,0v54.6l13.7,13.6V228c0-7.5,6.1-13.6,13.7-13.6
	s13.7,6.1,13.7,13.6s-6.1,13.6-13.7,13.6h-6.8v13.6h6.8c15.1,0,27.3-12.2,27.3-27.3l0,0C566.7,212.9,554.5,200.7,539.4,200.7
	L539.4,200.7z"/>
<path class="st0" d="M402.9,200.7L402.9,200.7c-8.2,0-15.5,3.6-20.5,9.2c-5-5.7-12.3-9.2-20.5-9.2l0,0c-15.1,0-27.3,12.2-27.3,27.3
	l0,0v27.3h13.6V228c0-7.5,6.1-13.6,13.6-13.6l0,0c7.5,0,13.6,6.1,13.6,13.6v27.3h13.6V228c0-7.5,6.1-13.6,13.6-13.6l0,0
	c7.5,0,13.6,6.1,13.6,13.6v27.3h13.6V228l0,0C430.2,212.9,418,200.7,402.9,200.7L402.9,200.7z"/>
</svg>
