<?xml version="1.0" encoding="UTF-8"?><svg id="Camada_2" xmlns="http://www.w3.org/2000/svg" viewBox="0 0 53.38 53.38"><defs><style>.cls-1{fill:#0593a2;}.cls-2{fill:#f25c69;}</style></defs><g id="Camada_1-2"><g><path class="cls-2" d="M26.72,0c14.83,0,26.7,11.95,26.66,26.9-.04,14.7-12.17,26.62-26.95,26.47C11.83,53.24-.11,41.24,0,26.36,.1,11.9,12.08,0,26.72,0Zm.31,37.25c3.14-.11,6.46-.2,9.77-.35,2.79-.13,4.18-1.4,4.51-4.15,.48-4.03,.48-8.08,0-12.11-.33-2.76-1.69-4.02-4.41-4.18-6.8-.39-13.6-.39-20.4,0-2.69,.16-4.03,1.35-4.38,4.03-.53,4.1-.52,8.22,0,12.32,.3,2.4,1.4,3.57,3.43,3.93,.52,.09,1.06,.16,1.59,.18,3.24,.11,6.49,.21,9.9,.32Z"/><path class="cls-1" d="M23.65,22.19c2.68,1.4,5.29,2.76,8.03,4.19-2.72,1.41-5.33,2.76-8.03,4.16v-8.35Z"/></g></g></svg>