<?xml version="1.0" encoding="utf-8"?>
<!-- Generator: Adobe Illustrator 25.3.1, SVG Export Plug-In . SVG Version: 6.00 Build 0)  -->
<svg version="1.1" id="Camada_1" xmlns="http://www.w3.org/2000/svg" xmlns:xlink="http://www.w3.org/1999/xlink" x="0px" y="0px"
	 viewBox="0 0 142.1 86.4" style="enable-background:new 0 0 142.1 86.4;" xml:space="preserve">
<style type="text/css">
	.st0{fill:#525252;}
</style>
<g>
	<path class="st0" d="M84.8,47.1c0,0.8,0.6,9.8-8.3,9.8c-6.4,0-8.1-4.8-8.2-7h4c0.2,0.8,0.7,3.6,4.3,3.6c5.1,0,4.3-5.5,4.3-7.7
		c-2.2,2.7-7.7,3.6-11.1-0.1c-3.4-3.7-2.7-10-0.2-12.7c4.1-4.6,10.4-2.6,11.3-0.9v-1.5h4L84.8,47.1L84.8,47.1z M76.3,33.4
		c-6.4,0-6.3,11,0,11S82.7,33.4,76.3,33.4z"/>
	<path class="st0" d="M89.7,30.4h4v0.9c0.7-0.7,4-2.6,7.2-0.4l-1.3,3.6c-4.1-2.1-5.9,0.2-5.9,4.1v8.8h-4V30.4L89.7,30.4z"/>
	<path class="st0" d="M115.8,30.4v1.5c-2.8-3.7-13.4-2.7-13.4,7s9.5,10.9,13.4,7.3v1.3h4v-17H115.8L115.8,30.4z M111.1,44.5
		c-6.3,0-6.4-10.9,0-10.9C117.7,33.5,117.7,44.5,111.1,44.5z"/>
	<path class="st0" d="M133,30c12.1,0,12.2,18-0.1,18C120.7,48,120.9,30,133,30z M133,44.5c6.8,0,6.9-10.9,0-10.9
		C126.2,33.6,126.2,44.5,133,44.5z"/>
	<path class="st0" d="M108.5,27.5l-2.3-2c1.5-2.1,2.4-3.3,4.5-3.3c2.2,0,4.5,1.9,5.6,1.9c0.6,0,1.4-0.6,2.1-1.9l2.2,1.9
		c-1.1,2.2-2.6,3.4-4.6,3.4C112.6,27.5,110.4,23.4,108.5,27.5L108.5,27.5z"/>
	<path class="st0" d="M26.9,60c1.5-3.4,3.6-6,3.6-6c-2.4-0.3-5.7-1.3-8.3-3.8c-2.7-2.5-4.6-6-4.6-10.7c0-5.6,3.1-10.4,7.8-12.8
		c5.2-2.7,10-9.9,10-17.8V3c-8.2,0-3,11.9-13.5,18.3c-6,3.8-10.7,9.8-10.7,18.3C10.9,50.1,18.5,58,26.9,60L26.9,60z"/>
	<path class="st0" d="M37,19.2c-1.5,3.4-3.7,6-3.7,6c2.4,0.3,5.7,1.3,8.3,3.8c2.6,2.4,4.6,6,4.6,10.7c0,5.6-3.1,10.4-7.8,12.8
		c-5.2,2.7-9.9,9.7-10,17.5l0,0v7.1H35V70c0-5.2,2.7-9.4,7-12.1c6-3.8,10.7-9.8,10.7-18.3C53,28.9,45.4,21.3,37,19.2L37,19.2z"/>
	<g>
		<path class="st0" d="M24.5,64.1C13.7,61.1,5.8,51.3,5.8,39.6c0-10,5.8-18.6,14-22.8c2.7-2.1,3.7-4.8,4.5-7.8
			C10.4,12.2,0,24.6,0,39.6s10.1,27,23.8,30.3C23.8,68,24,66,24.5,64.1z"/>
		<path class="st0" d="M38.6,9.2c0,2-0.3,4-0.8,5.8c10.8,2.9,18.8,12.8,18.8,24.5c0,9.9-5.7,18.5-13.8,22.7c-2.4,1.9-4,4.6-4,7.7
			c13.5-3.3,23.6-15.7,23.6-30.4S52.3,12.5,38.6,9.2L38.6,9.2z"/>
	</g>
</g>
</svg>
