<?xml version="1.0" encoding="utf-8"?>
<!-- Generator: Adobe Illustrator 25.3.1, SVG Export Plug-In . SVG Version: 6.00 Build 0)  -->
<svg version="1.1" id="Camada_1" xmlns="http://www.w3.org/2000/svg" xmlns:xlink="http://www.w3.org/1999/xlink" x="0px" y="0px"
	 viewBox="0 0 187.1 86.4" style="enable-background:new 0 0 187.1 86.4;" xml:space="preserve">
<style type="text/css">
	.st0{fill:#535352;}
</style>
<g id="_x37_FlDwx.tif">
</g>
<g>
	<path class="st0" d="M85.6,49.1V61h-5.5V48.7c0-1.1-0.2-1.9-0.5-2.7c-0.5-0.9-1.4-1.4-2.8-1.4c-1.4,0-2.4,0.5-3.2,1.4
		s-1.1,2.3-1.1,4v11h-5.3V33.6h5.3v9.7c0.8-1.2,1.6-1.9,2.7-2.4c1-0.5,2.1-0.7,3.2-0.7c1.2,0,2.4,0.2,3.4,0.7c1,0.4,1.9,1.1,2.5,1.9
		c0.5,0.8,0.9,1.6,1,2.3C85.6,46,85.6,47.3,85.6,49.1z"/>
	<path class="st0" d="M91.4,42.9c1.4-1.8,3.8-2.7,7.2-2.7c2.3,0,4.2,0.4,5.9,1.3c1.7,0.9,2.6,2.5,2.6,5v9.3c0,0.6,0,1.4,0.1,2.4
		c0.1,0.7,0.2,1.2,0.3,1.4c0.2,0.2,0.4,0.5,0.8,0.6v0.8h-5.8c-0.2-0.4-0.2-0.8-0.3-1.2c-0.1-0.3-0.2-0.8-0.2-1.2
		c-0.8,0.8-1.6,1.5-2.5,2c-1.2,0.7-2.4,1-3.9,1c-1.9,0-3.4-0.5-4.5-1.6c-1.2-1-1.8-2.5-1.8-4.5c0-2.5,0.9-4.3,2.9-5.5
		c1.1-0.6,2.6-1,4.6-1.3l1.9-0.2c0.9-0.2,1.7-0.2,2.1-0.5c0.8-0.3,1.2-0.8,1.2-1.5c0-0.8-0.2-1.4-0.9-1.7c-0.5-0.3-1.4-0.5-2.5-0.5
		c-1.2,0-2.2,0.3-2.7,0.9c-0.3,0.5-0.6,1.1-0.8,1.9h-5.1C90,45.6,90.5,44,91.4,42.9z M95.3,57.2c0.5,0.4,1.1,0.6,1.9,0.6
		c1.2,0,2.2-0.3,3.1-1c0.9-0.7,1.5-1.9,1.5-3.7v-1.9c-0.3,0.2-0.7,0.4-1,0.5c-0.3,0.2-0.8,0.2-1.4,0.3l-1.2,0.2
		c-1.1,0.2-1.9,0.4-2.4,0.8c-0.8,0.5-1.2,1.2-1.2,2.3C94.6,56.2,94.8,56.7,95.3,57.2z"/>
	<path class="st0" d="M129.4,48h-5.5c-0.1-0.8-0.3-1.4-0.8-2c-0.6-0.8-1.5-1.2-2.8-1.2c-1.8,0-3,0.9-3.7,2.7
		c-0.3,0.9-0.5,2.2-0.5,3.7c0,1.5,0.2,2.7,0.5,3.6c0.6,1.7,1.9,2.5,3.6,2.5c1.2,0,2.1-0.3,2.7-1c0.5-0.7,0.8-1.6,0.9-2.6h5.5
		c-0.2,1.6-0.7,3.1-1.8,4.5c-1.6,2.3-4.1,3.4-7.4,3.4s-5.6-0.9-7.2-2.9c-1.6-1.9-2.3-4.4-2.3-7.6c0-3.4,0.9-6.2,2.6-8.2
		c1.7-1.9,4.1-2.9,7.1-2.9c2.5,0,4.6,0.5,6.2,1.7C128.1,43.1,129.1,45.1,129.4,48z"/>
	<path class="st0" d="M151.7,61h-6.4l-4.8-8.7l-2.2,2.3V61H133V33.6h5.2v14.8l6.6-7.6h6.6l-7.1,7.7L151.7,61z"/>
	<path class="st0" d="M171.5,55.1c-0.2,1.2-0.8,2.4-1.9,3.7c-1.8,1.9-4.1,3-7.2,3c-2.6,0-4.8-0.8-6.9-2.5c-2-1.7-3-4.4-3-8.1
		c0-3.5,0.9-6.2,2.7-8.1c1.8-1.9,4.1-2.8,6.9-2.8c1.7,0,3.2,0.3,4.5,0.9c1.3,0.6,2.4,1.6,3.4,3c0.8,1.2,1.3,2.6,1.6,4.2
		c0.2,0.9,0.2,2.3,0.2,4h-13.9c0.1,2,0.7,3.4,1.9,4.3c0.8,0.5,1.6,0.8,2.7,0.8c1.1,0,1.9-0.3,2.7-0.9c0.3-0.3,0.7-0.8,1-1.4
		C166,55.1,171.5,55.1,171.5,55.1z M166.3,48.8c-0.1-1.4-0.5-2.4-1.3-3.2c-0.8-0.8-1.7-1.1-2.9-1.1c-1.2,0-2.2,0.4-2.9,1.2
		c-0.7,0.8-1.1,1.9-1.3,3.1H166.3z"/>
	<path class="st0" d="M185.6,45.6c-2.1,0-3.6,0.7-4.3,2.1c-0.4,0.8-0.6,1.9-0.6,3.6V61h-5.4V40.7h5.1v3.5c0.8-1.3,1.6-2.3,2.2-2.8
		c1-0.8,2.3-1.2,3.9-1.2c0.1,0,0.2,0,0.2,0s0.2,0,0.5,0v5.5c-0.3-0.1-0.6-0.1-0.9-0.1C186,45.6,185.7,45.6,185.6,45.6z"/>
</g>
<g>
	<path class="st0" d="M67.5,3h5.3v27.4h-5.3V3z"/>
	<path class="st0" d="M78.7,12.3c1.4-1.8,3.8-2.7,7.2-2.7c2.3,0,4.2,0.4,5.9,1.3c1.7,0.9,2.6,2.5,2.6,5v9.3c0,0.6,0,1.4,0.1,2.4
		c0.1,0.7,0.2,1.2,0.3,1.4c0.2,0.2,0.4,0.5,0.8,0.6v0.8h-5.8c-0.2-0.4-0.2-0.8-0.3-1.2c-0.1-0.4-0.2-0.8-0.2-1.2
		c-0.8,0.8-1.6,1.5-2.5,2c-1.2,0.7-2.4,1-3.9,1c-1.9,0-3.4-0.5-4.5-1.6c-1.2-1-1.8-2.5-1.8-4.5c0-2.5,0.9-4.3,2.9-5.5
		c1.1-0.6,2.6-1,4.6-1.3L86,18c0.9-0.2,1.7-0.2,2.1-0.5c0.8-0.3,1.2-0.8,1.2-1.5c0-0.8-0.2-1.4-0.9-1.7c-0.5-0.3-1.4-0.5-2.5-0.5
		c-1.2,0-2.1,0.3-2.7,0.9c-0.3,0.5-0.6,1.1-0.8,1.9h-5.1C77.3,14.9,77.8,13.4,78.7,12.3z M82.6,26.5c0.5,0.4,1.1,0.6,1.9,0.6
		c1.2,0,2.2-0.3,3.1-1c0.9-0.7,1.5-1.9,1.5-3.7v-1.9c-0.3,0.2-0.7,0.4-1,0.5c-0.3,0.2-0.8,0.2-1.4,0.3l-1.2,0.2
		c-1.1,0.2-1.9,0.4-2.4,0.8c-0.8,0.5-1.2,1.2-1.2,2.3C81.9,25.5,82.1,26.2,82.6,26.5z"/>
	<path class="st0" d="M110.1,30.9c-1.7,0-3-0.3-4-1c-0.6-0.4-1.3-1.1-1.9-2.1v2.6H99V3h5.3v9.7c0.7-0.9,1.4-1.6,2.3-2.2
		c0.9-0.6,2.2-0.9,3.7-0.9c2.7,0,4.8,0.9,6.2,2.9c1.5,1.9,2.3,4.4,2.3,7.5c0,3.1-0.8,5.8-2.3,7.8C114.9,29.9,112.8,30.9,110.1,30.9z
		 M113.1,20.6c0-1.4-0.2-2.7-0.5-3.6c-0.7-1.8-2-2.7-4-2.7c-1.9,0-3.3,0.9-4,2.7c-0.3,0.9-0.5,2.1-0.5,3.6c0,1.8,0.4,3.2,1.2,4.4
		s1.9,1.7,3.5,1.7c1.3,0,2.4-0.5,3.2-1.6C112.6,23.8,113.1,22.3,113.1,20.6z"/>
</g>
<g>
	<rect x="20.3" y="3" class="st0" width="19.3" height="19.3"/>
	<polygon class="st0" points="39.6,22.3 39.6,41.6 0.2,41.6 0.2,60.9 58.9,60.9 58.9,41.6 58.9,22.3 	"/>
</g>
</svg>
