<?xml version="1.0" encoding="utf-8"?>
<!-- Generator: Adobe Illustrator 25.3.1, SVG Export Plug-In . SVG Version: 6.00 Build 0)  -->
<svg version="1.1" id="Camada_1" xmlns="http://www.w3.org/2000/svg" xmlns:xlink="http://www.w3.org/1999/xlink" x="0px" y="0px"
	 viewBox="0 0 221.9 86.2" style="enable-background:new 0 0 221.9 86.2;" xml:space="preserve">
<style type="text/css">
	.st0{fill-rule:evenodd;clip-rule:evenodd;fill:#525252;}
	.st1{fill:#525252;}
</style>
<g>
	<g>
		<path class="st0" d="M32.3,3.1c0.9,0.2,1.8,0.3,2.6,0.5c5.9,2,9.6,6.2,10.6,12.8c1.3,8-3.7,15.6-11.1,17
			c-7.6,1.5-15.2-4.2-16.7-12.5S20.7,5.3,28.3,3.3c0.7-0.2,1.3-0.3,2-0.3L32.3,3.1L32.3,3.1z M32,29.4c5.5,0,9.8-4.6,9.8-10.5
			c0-6.2-4.8-11.4-10.4-11.4c-5.5,0-9.8,4.6-9.8,10.6C21.6,24.4,26.3,29.4,32,29.4z"/>
		<path class="st0" d="M0,41c0.2-0.7,0.3-1.4,0.4-2.1c1.5-5,5.6-8.1,10.4-8c5.6,0.1,10.1,4.5,11,10.4c1,6.5-3.3,12.6-9.2,13.4
			C6.7,55.6,1,51,0.1,44.4c0-0.1-0.1-0.2-0.1-0.3V41L0,41z M11.2,51.4c4.2,0.1,7.5-3.5,7.6-8c0.1-4.7-3.6-8.8-8-8.8
			c-4.2-0.1-7.6,3.4-7.6,7.9C3.2,47.4,6.7,51.4,11.2,51.4z"/>
		<path class="st0" d="M39.6,76.9c-0.3-0.1-0.8-0.2-1.1-0.3c-2.1-0.7-3.4-3.1-3.2-5.2c0.3-2.6,2.1-4.3,4.5-4.2
			c2.2,0,4.3,2.1,4.4,4.5c0.2,2.5-1.4,4.5-3.7,5c-0.1,0-0.2,0.1-0.3,0.1L39.6,76.9L39.6,76.9z M39.8,74.2c1.1,0,1.9-0.9,2-2
			c0-1.2-0.9-2.3-2.1-2.3c-1,0-1.9,0.9-1.9,2.1C37.8,73.1,38.7,74.2,39.8,74.2L39.8,74.2z"/>
		<path class="st0" d="M22,74.4c-4.6,0-8.3-4.1-8.3-9.1c0-4.8,3.6-8.7,8-8.6c4.5,0,8.2,4.2,8.2,9.1C30,70.7,26.5,74.5,22,74.4
			L22,74.4z M16.7,65.3c0,3.3,2.5,5.9,5.5,5.9c2.7,0,5-2.4,5-5.5c0-3.3-2.4-5.9-5.5-5.9C18.8,59.9,16.7,62.3,16.7,65.3L16.7,65.3z"
			/>
	</g>
	<g>
		<path class="st1" d="M38.7,56.7c0,1.1-0.3,2.1-1,2.9c-0.8,0.8-1.6,1.2-2.9,1.2c-1.2,0-2.1-0.3-2.9-1.2c-0.8-0.9-1.1-1.8-1.1-2.9
			v-2.4h2.9v4.2c0,1,0.3,1.5,1.1,1.5c0.8,0,1.1-0.5,1.1-1.5v-3.1c0-1.3-0.3-2.2-1-3l-3-3.3c-0.8-0.9-1.1-2-1.1-3.5v-1.9
			c0-1.1,0.3-2.1,1.1-2.9c0.8-0.8,1.6-1.1,2.9-1.1c1.2,0,2.1,0.3,2.9,1.1c0.8,0.8,1.1,1.8,1.1,2.9v2.4h-2.7V42c0-1-0.3-1.5-1.1-1.5
			c-0.8,0-1.1,0.5-1.1,1.5v2.7c0,1.3,0.3,2.2,0.9,3l3,3.3c0.8,0.9,1.1,2.1,1.1,3.5L38.7,56.7L38.7,56.7z"/>
		<path class="st1" d="M49.1,60.6h-3.7v-0.5c-0.5,0.4-1.2,0.8-2.1,0.8c-2.1,0-3.1-1.2-3.1-3.6v-4.5c0-2.6,1.4-3.8,4.2-3.8h0.9v-6.7
			c0-1-0.3-1.5-1.1-1.5c-0.8,0-1,0.4-1,1.5v4.2h-2.7V44c0-1.2,0.3-2.2,1-3c0.7-0.8,1.6-1.1,2.7-1.1s2.1,0.3,2.9,1.1
			c0.8,0.8,1,1.6,1,3v16h0.9C49.1,59.9,49.1,60.6,49.1,60.6z M45.3,59.3v-9.8h-0.9c-0.9,0-1.4,0.5-1.4,1.5v7.4c0,1,0.3,1.5,0.9,1.5
			C44.4,59.9,45,59.8,45.3,59.3z"/>
		<path class="st1" d="M59.3,60.6h-3.7v-0.5c-0.5,0.4-1.2,0.8-2.1,0.8c-2.1,0-3.1-1.2-3.1-3.6V40.7h-0.9v-0.8h3.7v18.4
			c0,1,0.3,1.5,1,1.5c0.4,0,0.9-0.2,1.3-0.7V40.7h-0.9v-0.8h3.8v19.8h0.9L59.3,60.6L59.3,60.6L59.3,60.6z"/>
		<path class="st1" d="M69.4,60.6h-3.7v-0.5c-0.5,0.4-1.2,0.8-2.1,0.8c-2.1,0-3.1-1.2-3.1-3.6V43.6c0-2.4,1-3.6,3.1-3.6
			c0.9,0,1.5,0.3,2.1,0.8v-6.9h-0.9v-0.8h3.7v27h0.9V60.6L69.4,60.6z M65.7,59.3V41.3c-0.3-0.4-0.9-0.7-1.3-0.7c-0.8,0-1,0.4-1,1.5
			v16.3c0,1,0.3,1.5,1,1.5C64.8,59.9,65.3,59.8,65.7,59.3L65.7,59.3z"/>
		<path class="st1" d="M79.4,60.6h-3.7v-0.5c-0.5,0.4-1.2,0.8-2.1,0.8c-2.1,0-3.1-1.2-3.1-3.6v-4.5c0-2.6,1.4-3.8,4.2-3.8h0.9v-6.7
			c0-1-0.3-1.5-1.1-1.5s-1,0.5-1,1.5v4.2h-2.9V44c0-1.2,0.3-2.2,1-3c0.7-0.8,1.6-1.1,2.9-1.1c1.3,0,2.1,0.3,2.9,1.1
			c0.8,0.8,1,1.6,1,3v16h0.9v0.8h0V60.6z M75.5,59.3v-9.8h-0.9c-0.9,0-1.4,0.5-1.4,1.5v7.4c0,1,0.3,1.5,1,1.5
			C74.8,59.9,75.2,59.8,75.5,59.3z M78.4,33.3l-3.8,5.6h-0.9l1.5-5.9h3.1C78.4,32.9,78.4,33.3,78.4,33.3z"/>
		<path class="st1" d="M88.9,40.7h-0.9l-2.4,19.8H83l-2.4-19.8h-0.9v-0.8h4.9v0.8h-0.9l1.6,16.1l1.8-16h-0.9V40h2.7L88.9,40.7
			L88.9,40.7z"/>
		<path class="st1" d="M98.1,56.7c0,1.1-0.3,2.1-1.1,2.9c-0.8,0.8-1.8,1.2-3,1.2s-2.1-0.3-3-1.2s-1.2-1.8-1.2-2.9V43.8
			c0-1.1,0.3-2.1,1.2-2.9s1.8-1.2,3-1.2s2.1,0.3,3,1.2c0.8,0.8,1.1,1.8,1.1,2.9v6.8h-5.4v7.9c0,1,0.4,1.5,1.3,1.5s1.3-0.5,1.3-1.5
			v-4.2h2.9C98.1,54.3,98.1,56.7,98.1,56.7z M95.4,49.8V42c0-1-0.3-1.5-1.3-1.5c-0.9,0-1.3,0.5-1.3,1.5v7.8H95.4z"/>
		<path class="st1" d="M104.3,60.6h-4.6v-0.8h0.9V40.8h-0.9V40h3.7v19.8h0.9C104.3,59.9,104.3,60.6,104.3,60.6z M103.4,37.6h-2.9
			v-4.7h2.9V37.6z"/>
		<path class="st1" d="M113.3,56.7c0,1.1-0.3,2.1-1,2.9c-0.8,0.8-1.6,1.2-2.9,1.2c-1.2,0-2.1-0.3-2.9-1.2s-1.1-1.8-1.1-2.9v-2.4h2.9
			v4.2c0,1,0.3,1.5,1.1,1.5c0.8,0,1.1-0.5,1.1-1.5v-3.1c0-1.3-0.3-2.2-1-3l-3-3.3c-0.8-0.9-1.1-2-1.1-3.5v-1.9
			c0-1.1,0.3-2.1,1.1-2.9c0.8-0.8,1.6-1.1,2.9-1.1c1.2,0,2.1,0.3,2.9,1.1c0.8,0.8,1.1,1.8,1.1,2.9v2.4h-2.9V42c0-1-0.3-1.5-1.1-1.5
			c-0.8,0-1.1,0.5-1.1,1.5v2.7c0,1.3,0.3,2.2,1,3l3,3.3c0.8,0.9,1.1,2.1,1.1,3.5L113.3,56.7L113.3,56.7z"/>
		<path class="st1" d="M128.2,56.7c0,1.1-0.3,2.1-1,2.9c-0.8,0.8-1.6,1.2-2.9,1.2c-1.2,0-2.1-0.3-2.9-1.2c-0.8-0.9-1.1-1.8-1.1-2.9
			v-2.4h2.9v4.2c0,1,0.3,1.5,1.1,1.5c0.8,0,1.1-0.5,1.1-1.5v-3.1c0-1.3-0.3-2.2-1-3l-3-3.3c-0.8-0.9-1.1-2-1.1-3.5v-1.9
			c0-1.1,0.3-2.1,1.1-2.9c0.8-0.8,1.6-1.1,2.9-1.1c1.2,0,2.1,0.3,2.9,1.1c0.8,0.8,1.1,1.8,1.1,2.9v2.4h-2.9V42c0-1-0.3-1.5-1.1-1.5
			c-0.8,0-1.1,0.5-1.1,1.5v2.7c0,1.3,0.3,2.2,1,3l3,3.3c0.8,0.9,1.1,2.1,1.1,3.5L128.2,56.7L128.2,56.7z"/>
		<path class="st1" d="M139,60.6h-3.7v-0.5c-0.5,0.4-1.2,0.8-2.1,0.8c-2.1,0-3.2-1.2-3.2-3.6V40.7H129v-0.8h3.7v18.4
			c0,1,0.3,1.5,1,1.5c0.4,0,0.9-0.2,1.3-0.7V40.7h-0.9v-0.8h3.7v19.8h0.9L139,60.6L139,60.6z"/>
		<path class="st1" d="M148.5,57.1c0,2.4-1,3.6-3.1,3.6c-0.9,0-1.5-0.3-2.1-0.8v0.5h-3.7v-0.8h0.9v-26h-0.9v-0.8h3.7v7.7
			c0.5-0.4,1.2-0.8,2.1-0.8c2.1,0,3.1,1.2,3.1,3.6V57.1L148.5,57.1z M145.7,58.5V42.2c0-1-0.3-1.5-1-1.5c-0.4,0-0.9,0.2-1.3,0.7v18
			c0.3,0.4,0.9,0.7,1.3,0.7C145.3,59.9,145.7,59.5,145.7,58.5L145.7,58.5z"/>
		<path class="st1" d="M158.8,40.7h-0.9l-2.4,19.8h-2.6l-2.4-19.8h-0.9v-0.8h4.9v0.8h-0.9l1.6,16.1l1.8-16H156V40h2.7L158.8,40.7
			L158.8,40.7z"/>
		<path class="st1" d="M168.2,56.7c0,1.1-0.3,2.1-1.1,2.9c-0.8,0.8-1.8,1.2-3,1.2s-2.1-0.3-3-1.2c-0.9-0.9-1.2-1.8-1.2-2.9V43.8
			c0-1.1,0.3-2.1,1.2-2.9c0.9-0.9,1.8-1.2,3-1.2s2.1,0.3,3,1.2c0.8,0.8,1.1,1.8,1.1,2.9v6.8h-5.4v7.9c0,1,0.4,1.5,1.3,1.5
			c0.9,0,1.3-0.5,1.3-1.5v-4.2h2.9L168.2,56.7C168.3,56.7,168.2,56.7,168.2,56.7z M165.3,49.8V42c0-1-0.3-1.5-1.3-1.5
			c-0.9,0-1.3,0.5-1.3,1.5v7.8H165.3z"/>
		<path class="st1" d="M178,46.3h-2.9v-4.2c0-1-0.3-1.5-0.9-1.5c-0.3,0-0.8,0.2-1.1,0.7v18.5h0.9v0.8h-4.6v-0.8h0.9V40.8h-0.9V40
			h3.7v0.5c0.5-0.4,1.2-0.8,2.1-0.8c1.9,0,2.9,1.2,2.9,3.6L178,46.3L178,46.3z"/>
		<path class="st1" d="M187.3,56.7c0,1.1-0.3,2.1-1,2.9c-0.8,0.8-1.6,1.2-2.9,1.2c-1.2,0-2.1-0.3-2.9-1.2s-1.1-1.8-1.1-2.9v-2.4h2.9
			v4.2c0,1,0.3,1.5,1.1,1.5c0.8,0,1.1-0.5,1.1-1.5v-3.1c0-1.3-0.3-2.2-1-3l-3-3.3c-0.8-0.9-1.1-2-1.1-3.5v-1.9
			c0-1.1,0.3-2.1,1.1-2.9c0.8-0.8,1.6-1.1,2.9-1.1c1.2,0,2.1,0.3,2.9,1.1s1.1,1.8,1.1,2.9v2.4h-2.9V42c0-1-0.3-1.5-1.1-1.5
			c-0.8,0-1.3,0.5-1.3,1.5v2.7c0,1.3,0.3,2.2,1,3l3,3.3c0.8,0.9,1.1,2.1,1.1,3.5L187.3,56.7L187.3,56.7z"/>
		<path class="st1" d="M193.1,60.6h-4.6v-0.8h0.9V40.8h-0.9V40h3.7v19.8h0.9V60.6L193.1,60.6z M192.2,37.6h-2.9v-4.7h2.9V37.6z"/>
		<path class="st1" d="M202.9,40.7h-0.9l-2.4,19.8H197l-2.4-19.8h-0.9v-0.8h4.9v0.8h-0.9l1.6,16l1.8-16H200v-0.8h2.7L202.9,40.7
			L202.9,40.7z"/>
		<path class="st1" d="M212.2,56.7c0,1.1-0.3,2.1-1.1,2.9c-0.8,0.8-1.8,1.2-3,1.2s-2.1-0.3-3-1.2c-0.9-0.9-1.2-1.8-1.2-2.9V43.8
			c0-1.1,0.3-2.1,1.2-2.9c0.9-0.9,1.8-1.2,3-1.2s2.1,0.3,3,1.2c0.8,0.8,1.1,1.8,1.1,2.9V56.7z M209.4,58.5V42.2c0-1-0.3-1.5-1.3-1.5
			c-0.9,0-1.3,0.5-1.3,1.5v16.3c0,1,0.4,1.5,1.3,1.5C208.9,60,209.4,59.5,209.4,58.5z"/>
		<path class="st1" d="M221.8,56.7c0,1.1-0.3,2.1-1,2.9c-0.8,0.8-1.6,1.2-2.9,1.2c-1.2,0-2.1-0.3-2.9-1.2s-1.1-1.8-1.1-2.9v-2.4h2.9
			v4.2c0,1,0.3,1.5,1.1,1.5c0.8,0,1.1-0.5,1.1-1.5v-3.1c0-1.3-0.3-2.2-1-3l-3-3.3c-0.8-0.9-1.1-2-1.1-3.5v-1.9
			c0-1.1,0.3-2.1,1.1-2.9c0.8-0.8,1.6-1.1,2.9-1.1c1.2,0,2.1,0.3,2.9,1.1s1.1,1.8,1.1,2.9v2.4H219V42c0-1-0.3-1.5-1.1-1.5
			c-0.8,0-1.1,0.5-1.1,1.5v2.7c0,1.3,0.3,2.2,1,3l3,3.3c0.8,0.9,1.1,2.1,1.1,3.5L221.8,56.7L221.8,56.7z"/>
	</g>
</g>
</svg>
