<?xml version="1.0" encoding="UTF-8"?><svg id="Camada_2" xmlns="http://www.w3.org/2000/svg" viewBox="0 0 53.39 53.38"><defs><style>.cls-1{fill:#f25c69;}</style></defs><g id="Camada_1-2"><path class="cls-1" d="M26.95,53.38C12.32,53.55,.15,41.68,0,26.95-.15,12.31,11.71,.15,26.44,0c14.67-.15,26.81,11.73,26.95,26.43,.14,14.67-11.73,26.83-26.44,26.94Zm-1.06-26.66c.02-3.87-3.13-7.03-6.99-7.05-3.83-.01-6.99,3.12-7.03,6.96-.03,3.86,3.08,7.03,6.97,7.08,3.84,.05,7.03-3.12,7.05-6.99Zm15.63-.05c-.01-3.86-3.21-7.04-7.05-7-3.86,.04-6.96,3.16-6.97,7.01,0,3.87,3.15,7.04,7.01,7.03,3.87,0,7.02-3.18,7.01-7.04Z"/></g></svg>