<?xml version="1.0" encoding="UTF-8"?><svg id="Camada_2" xmlns="http://www.w3.org/2000/svg" viewBox="0 0 53.32 53.38"><defs><style>.cls-1{fill:#f25c69;}</style></defs><g id="Camada_1-2"><g><path class="cls-1" d="M28.36,53.38h-3.34c-.65-.08-1.3-.15-1.95-.24-4.92-.7-9.35-2.58-13.19-5.74C4.77,43.21,1.6,37.85,.41,31.34,.24,30.36,.14,29.36,0,28.36c0-1.11,0-2.22,0-3.34,.17-1.17,.29-2.34,.51-3.49C2.71,10.07,12.47,1.2,24.07,.13c5.7-.52,11.12,.5,16,3.51,9.55,5.89,13.98,14.53,13.16,25.73-.39,5.29-2.45,10.02-5.82,14.13-4.19,5.11-9.55,8.28-16.07,9.47-.99,.18-1.99,.28-2.98,.41ZM11.28,26.71c.1,2.54,.1,5.09,.31,7.63,.32,3.88,3.03,6.8,6.88,7.34,1.93,.27,3.91,.31,5.87,.31,3.32,0,6.64,.01,9.95-.22,3.06-.22,5.4-1.79,6.74-4.63,.59-1.24,.85-2.57,.87-3.94,.05-3.59,.09-7.19,.09-10.79,0-1.13-.08-2.26-.19-3.38-.4-3.89-3.03-6.78-6.89-7.34-1.91-.28-3.88-.31-5.82-.31-3.33,0-6.68-.02-10,.21-4.14,.28-7.16,3.34-7.5,7.48-.21,2.52-.21,5.06-.31,7.62Z"/><path class="cls-1" d="M14.08,26.66c.07-2.33,.08-4.64,.22-6.94,.19-3.2,2.22-5.32,5.43-5.41,4.63-.12,9.27-.13,13.9,0,3.27,.09,5.36,2.18,5.45,5.47,.12,4.63,.12,9.27,0,13.9-.08,3.17-2.22,5.22-5.38,5.4-4.67,.27-9.34,.27-14.01,0-3.16-.18-5.2-2.23-5.39-5.41-.14-2.34-.15-4.68-.22-7.01Zm12.62,7.89c4.34,0,7.84-3.5,7.86-7.84,.02-4.36-3.51-7.89-7.87-7.88-4.34,0-7.84,3.5-7.86,7.84-.02,4.35,3.51,7.89,7.87,7.88Zm8.15-14.21c1.03,0,1.86-.8,1.86-1.83,0-1.01-.81-1.82-1.81-1.83-1.03,0-1.85,.8-1.85,1.83,0,1.01,.8,1.82,1.81,1.83Z"/><path class="cls-1" d="M31.8,26.7c0,2.81-2.3,5.09-5.11,5.09-2.83,0-5.12-2.31-5.11-5.14,.02-2.8,2.32-5.08,5.13-5.07,2.81,.01,5.09,2.31,5.08,5.12Z"/></g></g></svg>