<?xml version="1.0" encoding="UTF-8"?><svg id="Camada_2" xmlns="http://www.w3.org/2000/svg" viewBox="0 0 747.75 296.24"><defs><style>.cls-1{fill:#0593a2;}.cls-2{fill:#f25c69;}</style></defs><g id="Camada_1-2"><g><path class="cls-2" d="M167.35,14.49h0c-17.12-17.12-44.87-17.12-61.98,0h0c-17.12,17.12-17.12,44.87,0,61.98h0s7.75,7.75,7.75,7.75l15.5-15.5-7.75-7.75h0c-8.56-8.56-8.56-22.43,0-30.99,8.56-8.56,22.43-8.56,30.99,0h0c8.56,8.56,8.56,22.43,0,30.99h0s-14.63,14.63-14.63,14.63l-16.36,16.36,15.5,15.5,30.99-30.99h0c17.12-17.12,17.12-44.87,0-61.98Z"/><g><rect class="cls-1" x="166.91" y="76.03" width="87.65" height="87.65" transform="translate(-23.03 184.12) rotate(-45)"/><rect class="cls-1" x="92.53" y="150.41" width="87.65" height="87.65" transform="translate(-97.41 153.31) rotate(-45)"/><rect class="cls-1" x="18.15" y="76.03" width="87.65" height="87.65" transform="translate(-66.6 78.93) rotate(-45)"/></g><g><path class="cls-2" d="M432.56,124.42h0c-15.08,0-27.3,12.22-27.3,27.3h0c0,15.08,12.22,27.3,27.3,27.3h0c15.08,0,27.3-12.22,27.3-27.3h0c0-15.08-12.22-27.3-27.3-27.3Zm0,40.95c-7.54,0-13.65-6.11-13.65-13.65s6.11-13.65,13.65-13.65,13.65,6.11,13.65,13.65-6.11,13.65-13.65,13.65Z"/><path class="cls-2" d="M364.3,124.42h0c-15.08,0-27.3,12.22-27.3,27.3h0v27.3h13.65v-27.3c0-7.54,6.11-13.65,13.65-13.65h0c7.54,0,13.65,6.11,13.65,13.65v27.3h13.65v-27.3h0c0-15.08-12.22-27.3-27.3-27.3Z"/></g><g><polygon class="cls-1" points="402.22 13.65 402.22 40.95 402.22 68.26 402.22 95.56 415.88 95.56 415.88 68.26 415.88 40.95 415.88 13.65 402.22 0 402.22 13.65"/><path class="cls-1" d="M456.83,40.95h0c-15.08,0-27.3,12.22-27.3,27.3h0c0,15.08,12.22,27.3,27.3,27.3h6.83v-13.65h-6.83c-7.54,0-13.65-6.11-13.65-13.65s6.11-13.65,13.65-13.65h0c7.54,0,13.65,6.11,13.65,13.65v27.3h13.65v-27.3h0c0-15.08-12.22-27.3-27.3-27.3Z"/><path class="cls-1" d="M361.27,40.95h0c-15.08,0-27.3,12.22-27.3,27.3h0c0,15.08,12.22,27.3,27.3,27.3h6.83v-13.65h-6.83c-7.54,0-13.65-6.11-13.65-13.65s6.11-13.65,13.65-13.65,13.65,6.11,13.65,13.65v27.3h13.65v-27.3h0c0-15.08-12.22-27.3-27.3-27.3Z"/><path class="cls-1" d="M661.6,40.95h0c-15.08,0-27.3,12.22-27.3,27.3h0c0,15.08,12.22,27.3,27.3,27.3h6.83v-13.65h-6.83c-7.54,0-13.65-6.11-13.65-13.65s6.11-13.65,13.65-13.65h0c7.54,0,13.65,6.11,13.65,13.65v27.3h13.65v-27.3h0c0-15.08-12.22-27.3-27.3-27.3Z"/><path class="cls-1" d="M525.09,40.95h0c-15.08,0-27.3,12.22-27.3,27.3h0c0,15.08,12.22,27.3,27.3,27.3h6.83v-13.65h-6.83c-7.54,0-13.65-6.11-13.65-13.65s6.11-13.65,13.65-13.65,13.65,6.11,13.65,13.65v40.95c0,7.54-6.11,13.65-13.65,13.65s-13.65-6.11-13.65-13.65h-13.65c0,15.08,12.22,27.3,27.3,27.3h0c15.08,0,27.3-12.22,27.3-27.3v-40.95h0c0-15.08-12.22-27.3-27.3-27.3Z"/><path class="cls-1" d="M593.34,40.95h0c-15.08,0-27.3,12.22-27.3,27.3h0c0,15.08,12.22,27.3,27.3,27.3h0c15.08,0,27.3-12.22,27.3-27.3h0c0-15.08-12.22-27.3-27.3-27.3Zm0,40.95c-7.54,0-13.65-6.11-13.65-13.65s6.11-13.65,13.65-13.65,13.65,6.11,13.65,13.65-6.11,13.65-13.65,13.65Z"/><path class="cls-1" d="M723.9,52.74h23.86v-11.79h-24.5c-11.41,0-20.55,6.96-20.69,21.2h-.01v12.19h32.71c-.6,5.47-3.58,9.41-9.06,9.41h-23.65v11.79h24.29c11.37,0,20.47-7.15,20.68-21.19h.02v-12.19h-32.74c.55-5.55,3.55-9.41,9.08-9.41Z"/></g><g><path class="cls-2" d="M471.16,200.68h0c-15.08,0-27.3,12.22-27.3,27.3h0c0,15.08,12.22,27.3,27.3,27.3h6.83v-13.65h-6.83c-7.54,0-13.65-6.11-13.65-13.65s6.11-13.65,13.65-13.65,13.65,6.11,13.65,13.65v27.3h13.65v-27.3h0c0-15.08-12.22-27.3-27.3-27.3Z"/><path class="cls-2" d="M607.68,200.68h0c-15.08,0-27.3,12.22-27.3,27.3h0c0,15.08,12.22,27.3,27.3,27.3h6.83v-13.65h-6.83c-7.54,0-13.65-6.11-13.65-13.65s6.11-13.65,13.65-13.65h0c7.54,0,13.65,6.11,13.65,13.65v27.3h13.65v-27.3h0c0-15.08-12.22-27.3-27.3-27.3Z"/><path class="cls-2" d="M539.42,200.68h0c-15.08,0-27.3,12.22-27.3,27.3h0v54.61l13.65,13.65v-68.26c0-7.54,6.11-13.65,13.65-13.65s13.65,6.11,13.65,13.65-6.11,13.65-13.65,13.65h-6.83v13.65h6.83c15.08,0,27.3-12.22,27.3-27.3h0c0-15.08-12.22-27.3-27.3-27.3Z"/><path class="cls-2" d="M402.91,200.68h0c-8.16,0-15.47,3.58-20.48,9.25-5-5.67-12.32-9.25-20.48-9.25h0c-15.08,0-27.3,12.22-27.3,27.3h0v27.3h13.65v-27.3c0-7.54,6.11-13.65,13.65-13.65h0c7.54,0,13.65,6.11,13.65,13.65v27.3h13.65v-27.3c0-7.54,6.11-13.65,13.65-13.65h0c7.54,0,13.65,6.11,13.65,13.65v27.3h13.65v-27.3h0c0-15.08-12.22-27.3-27.3-27.3Z"/></g></g></g></svg>