<?xml version="1.0" encoding="UTF-8" standalone="no"?>
<!DOCTYPE svg PUBLIC "-//W3C//DTD SVG 1.1//EN" "http://www.w3.org/Graphics/SVG/1.1/DTD/svg11.dtd">
<svg xmlns="http://www.w3.org/2000/svg" xmlns:xlink="http://www.w3.org/1999/xlink" version="1.1" width="640" height="640" viewBox="0 0 640 640" xml:space="preserve">
<desc>Created with Fabric.js 4.6.0</desc>
<defs>
</defs>
<g transform="matrix(5.59 0 0 5.59 320 320)" id="A5WXgTouE7PI7KGMTmi4p">
<path style="stroke: none; stroke-width: 1; stroke-dasharray: none; stroke-linecap: butt; stroke-dashoffset: 0; stroke-linejoin: miter; stroke-miterlimit: 4; fill: rgb(135,135,135); fill-rule: nonzero; opacity: 1;" vector-effect="non-scaling-stroke" transform=" translate(0, 0)" d="M 0.05 -50 C -20.55 -50 -37.25 -33.1 -37.45 -12.200000000000003 C -37.35 -4.900000000000003 -35.25 1.9999999999999964 -31.550000000000004 7.699999999999996 L -2.850000000000005 47.8 C -2.050000000000005 49.3 -0.9500000000000051 50 0.04999999999999494 50 L 0.04999999999999494 50 C 1.149999999999995 50 2.149999999999995 49.3 2.949999999999995 47.8 L 31.549999999999997 7.699999999999996 C 35.25 1.899999999999996 37.449999999999996 -4.900000000000004 37.449999999999996 -12.200000000000003 C 37.349999999999994 -33.1 20.649999999999995 -50 0.04999999999999716 -50 z M 0.05 3.9 C -9.049999999999999 3.9 -16.349999999999998 -3.4 -16.349999999999998 -12.499999999999998 C -16.349999999999998 -21.599999999999998 -9.049999999999997 -28.9 0.05000000000000071 -28.9 C 9.15 -28.9 16.45 -21.599999999999998 16.45 -12.5 C 16.45 -3.4000000000000004 9.149999999999999 3.8999999999999986 0.05000000000000071 3.8999999999999986 z" stroke-linecap="round"/>
</g>
</svg>